<svg data-v-6805eed4="" version="1.0" xmlns="http://www.w3.org/2000/svg" xmlns:xlink="http://www.w3.org/1999/xlink" width="100%" height="100%" viewBox="0 0 340.000000 250.000000" preserveAspectRatio="xMidYMid meet" color-interpolation-filters="sRGB" style="margin: auto;"> <rect data-v-6805eed4="" x="0" y="0" width="100%" height="100%" fill="#ffffff" fill-opacity="1" class="background"></rect> <rect data-v-6805eed4="" x="0" y="0" width="100%" height="100%" fill="url(#watermark)" fill-opacity="1" class="watermarklayer"></rect> <g data-v-6805eed4="" fill="#0a0619" class="icon-text-wrapper icon-svg-group iconsvg" transform="translate(116.33000183105469,60.41482543997111)"><g class="iconsvg-imagesvg" transform="translate(23.669998168945312,0)" mask="url(#4714bc5c-82e1-4e9d-a130-63459d484462)"><g><rect fill="#0a0619" fill-opacity="0" stroke-width="2" x="0" y="0" width="60" height="58.38222844965993" class="image-rect"></rect> <svg filter="url(#colors9935555793)" x="0" y="0" width="60" height="58.38222844965993" filtersec="colorsf9903860310" class="image-svg-svg primary" style="overflow: visible;"><svg xmlns="http://www.w3.org/2000/svg" viewBox="-0.014941391535103321 0.015548555180430412 107.87821960449219 104.96990966796875"><title>资源 14</title><path d="M27.74 5.39C29.59 4.2 31.28 3 33.11 2A15.54 15.54 0 0 1 37.46.35c1.45-.29 2.56.9 3.75 1.59C42.92 3 44.62 4 46.32 5s3.27 2 4.93 3c3.43 2 6.9 3.94 10.32 5.95q5.7 3.33 11.34 6.76a1.28 1.28 0 0 1 .52.93v21.92a1.43 1.43 0 0 1-.49 1.07c-2.4 1.47-4.85 2.87-7.28 4.29a3.76 3.76 0 0 1-.67.17v-3.65l-.18-18.81a1.14 1.14 0 0 0-.66-1.18c-3.37-1.86-6.7-3.77-10-5.68-3.15-1.77-6.21-3.53-9.3-5.28A60.55 60.55 0 0 1 39 11.21c-1.76-1.27-3-.17-4.41.44s-2.26 1.5-3.56 2A38 38 0 0 0 27 16q-4.77 2.67-9.56 5.3a5.06 5.06 0 0 1-.94.27V15.8a28.56 28.56 0 0 0 0-3.07 1.45 1.45 0 0 1 .91-1.58C19.9 9.73 22.45 8.32 25 6.82M45.46 44.69c-.62.44-.92.69-1.24.88l-15.36 9c-.83.49-1.64 1-2.5 1.44a1.37 1.37 0 0 0-.85 1.4v30.3a1.41 1.41 0 0 0 .88 1.44c4.72 2.65 9.4 5.35 14.1 8 1.38.79 2.75 1.58 4.13 2.39.37.21.72.45 1.21.76a8.89 8.89 0 0 1-1.08 1c-1.69 1-3.4 2.07-5.11 3.1a4.1 4.1 0 0 1-4.44-.14c-5.87-3.44-11.7-7-17.54-10.43a1.39 1.39 0 0 1-.82-1.33V70.67 52.94a1.81 1.81 0 0 1 .91-1.74c2.82-1.68 5.62-3.37 8.45-5s5.83-3.41 8.73-5.14a4.08 4.08 0 0 1 4.19-.2c2.04 1.14 4.03 2.43 6.34 3.83z" fill="#000000"></path><path d="M8.55 69.62c-1.83-1-3.42-2-5-2.87a22.92 22.92 0 0 0-2.68-1.37A1.24 1.24 0 0 1 0 64V47.47v-5.48a2 2 0 0 1 1.26-2c2.76-1.52 5.5-3.09 8.23-4.66q7-4 14-8.09c3.3-1.91 6.63-3.78 9.87-5.79a5.17 5.17 0 0 1 6 0c5.18 3.17 10.42 6.24 15.67 9.28a2.63 2.63 0 0 1 1.61 2.72c-.12 2.09 0 4.19 0 6.28 0 .45-.07.9-.12 1.55-1.24-.67-2.34-1.24-3.42-1.85q-7.93-4.47-15.84-9a1.61 1.61 0 0 0-1.82 0C29.38 34 23.31 37.48 17.23 41c-2.53 1.45-5.06 2.89-7.61 4.31a1.76 1.76 0 0 0-1 1.75v21.42c0 .26-.04.52-.07 1.14zM62.26 4.76c1.27-.84 2.4-1.64 3.58-2.36S68.33 1 69.56.3a1.63 1.63 0 0 1 1.84 0C76.2 3 81 5.76 85.83 8.51c1.47.84 2.91 1.73 4.36 2.58a2 2 0 0 1 1.18 2c-.09 7.13-.11 14.27-.14 21.41v17.43a2.13 2.13 0 0 1-1 2c-2.45 1.59-4.87 3.22-7.39 4.7-3.48 2.06-7 4-10.58 6a2.79 2.79 0 0 1-2.16.27c-2.52-1.23-4.94-2.65-7.64-4.13.61-.43.93-.69 1.28-.89q9-5.25 18-10.46c.9-.52.82-1.28.82-2.06V36c0-6-.11-11.89 0-17.83a2.27 2.27 0 0 0-1.42-2.29c-6-3.4-12-6.86-18-10.31a6.76 6.76 0 0 1-.88-.81zM43.15 56.21a11.34 11.34 0 0 1 .13 1.2q0 8.72-.05 17.44a22.79 22.79 0 0 1 0 3c-.2 1.37.49 1.9 1.59 2.51 4.42 2.44 8.75 5 13.11 7.56l9.56 5.54a3.87 3.87 0 0 1 .59.36c1.85 1.62 3.57 1.31 5.6.1 5.57-3.34 11.27-6.47 16.92-9.68.22-.13.46-.21.67-.31.1.11.18.15.18.2 0 3 .07 5.91 0 8.86a1.26 1.26 0 0 1-.61.88c-4.19 2.43-8.4 4.83-12.6 7.24-1.79 1-3.55 2.08-5.35 3.08a4.39 4.39 0 0 1-4.71-.12c-5.09-3-10.21-6-15.33-9q-8.67-5.09-17.37-10.14a1.51 1.51 0 0 1-.89-1.49c0-6.68 0-13.35-.1-20a3.36 3.36 0 0 1 2-3.55c1.69-.83 3.25-1.93 4.89-2.87a13.68 13.68 0 0 1 1.77-.81z" fill="#000000"></path><path d="M51.64 63.8c2.07 1.16 3.91 2.14 5.7 3.19 4.36 2.54 8.72 5.09 13 7.69a2.48 2.48 0 0 0 2.85-.08c3.55-2.07 7.13-4.1 10.69-6.16 4.86-2.81 9.69-5.64 14.57-8.41a1.46 1.46 0 0 0 .87-1.47v-15q0-3.44.08-6.87a4.11 4.11 0 0 1 .13-.68 3.49 3.49 0 0 1 .75.23c2.29 1.28 4.58 2.55 6.84 3.89a1.61 1.61 0 0 1 .67 1.17c.07 7.57.08 15.15.07 22.72a1.37 1.37 0 0 1-.61 1q-10.09 5.83-20.31 11.64c-4.57 2.63-9.16 5.24-13.71 7.9a2.75 2.75 0 0 1-3.2-.12c-3.53-2.17-7.15-4.19-10.74-6.27l-6.95-4.08a1.62 1.62 0 0 1-.85-1.63c.07-2.39 0-4.78 0-7.17.02-.39.08-.77.15-1.49z" fill="#000000"></path></svg></svg> <defs><filter id="colors9935555793"><feColorMatrix type="matrix" values="0 0 0 0 0.0390625  0 0 0 0 0.0234375  0 0 0 0 0.09765625  0 0 0 1 0" class="icon-fecolormatrix"></feColorMatrix></filter> <filter id="colorsf9903860310"><feColorMatrix type="matrix" values="0 0 0 0 0.99609375  0 0 0 0 0.99609375  0 0 0 0 0.99609375  0 0 0 1 0" class="icon-fecolormatrix"></feColorMatrix></filter> <filter id="colorsb4639363834"><feColorMatrix type="matrix" values="0 0 0 0 0  0 0 0 0 0  0 0 0 0 0  0 0 0 1 0" class="icon-fecolormatrix"></feColorMatrix></filter></defs></g><rect v-gra="id" width="72" height="70.38222885131836" transform="translate(-6, -6)" style="pointer-events:none;" fill="url(#o-kMeUyZFMzKreOg3TiIg)"></rect></g> <g transform="translate(0,65.38222885131836)"><g data-gra="path-name" fill-rule="" class="tp-name iconsvg-namesvg" transform="translate(0,0)"><g transform="scale(1)"><g><path d="M10.98 1.11L10.98 1.11Q8.22 1.11 6.52 1.16 4.82 1.21 3.84 1.27L3.84 1.27Q2.7 1.36 2.16 1.43L2.16 1.43Q2.41-0.35 2.6-2.36 2.79-4.38 2.95-6.47 3.11-8.57 3.21-10.63 3.3-12.7 3.36-14.57L3.36-14.57Q3.49-18.98 3.52-23.39L3.52-23.39Q3.49-27.8 3.36-31.93L3.36-31.93Q3.3-33.67 3.21-35.56 3.11-37.45 2.98-39.26 2.86-41.07 2.68-42.72 2.51-44.37 2.29-45.7L2.29-45.7 4.35-45.7Q6.06-45.7 7.3-45.75 8.54-45.8 9.36-45.86L9.36-45.86Q10.31-45.93 10.98-46.02L10.98-46.02Q10.82-42.85 10.71-39.64 10.6-36.44 10.54-33.53 10.47-30.63 10.44-28.22 10.41-25.8 10.41-24.18L10.41-24.18Q11.43-24.12 12.38-24.12 13.33-24.12 14.25-24.12L14.25-24.12Q16.25-24.12 17.79-24.2 19.33-24.28 20.34-24.38L20.34-24.38Q20.34-24.57 20.33-25.76 20.31-26.95 20.28-28.75 20.25-30.56 20.17-32.82 20.09-35.07 19.96-37.39 19.84-39.7 19.65-41.88 19.46-44.05 19.17-45.7L19.17-45.7 21.2-45.7Q22.82-45.7 24.01-45.75 25.2-45.8 25.99-45.86L25.99-45.86Q26.91-45.93 27.55-46.02L27.55-46.02Q27.45-43.96 27.37-41.85 27.29-39.74 27.25-37.69 27.2-35.64 27.17-33.72 27.14-31.8 27.1-30.09L27.1-30.09Q27.04-26.09 27.04-22.38L27.04-22.38Q27.04-18.69 27.1-14.89L27.1-14.89Q27.14-13.27 27.17-11.47 27.2-9.68 27.25-7.82 27.29-5.97 27.37-4.13 27.45-2.29 27.55-0.57L27.55-0.57Q24.88-0.57 23.23-0.52 21.58-0.48 20.66-0.41L20.66-0.41Q19.58-0.32 19.04-0.25L19.04-0.25Q19.33-2.19 19.52-4.38 19.71-6.57 19.85-8.82 20-11.08 20.07-13.27 20.15-15.46 20.22-17.36L20.22-17.36Q18.69-17.52 17.3-17.57 15.9-17.61 14.63-17.61L14.63-17.61Q13.3-17.61 12.24-17.58 11.17-17.55 10.41-17.49L10.41-17.49Q10.41-15.77 10.44-13.52 10.47-11.27 10.55-8.81 10.63-6.35 10.73-3.79 10.82-1.24 10.98 1.11ZM54.65-39.01L54.65-39.01Q50.97-39.36 48.21-39.47 45.45-39.58 43.48-39.58L43.48-39.58Q42.59-39.58 41.97-39.58 41.35-39.58 40.82-39.51L40.82-39.51 40.82-27.04Q43.01-27.1 44.75-27.22 46.5-27.33 47.7-27.49L47.7-27.49Q49.13-27.64 50.24-27.83L50.24-27.83Q50.21-27.61 50.21-27.33L50.21-27.33Q50.18-27.07 50.18-26.72 50.18-26.37 50.18-25.93L50.18-25.93Q50.18-24.91 50.24-23.5 50.31-22.09 50.5-20.47L50.5-20.47Q47.13-20.92 44.69-21.03 42.24-21.14 40.88-21.14L40.88-21.14Q40.94-15.08 41.12-10.87 41.29-6.67 41.48-4.06L41.48-4.06Q41.67-0.98 41.93 0.92L41.93 0.92Q41.32 0.83 40.53 0.78 39.74 0.73 38.85 0.73L38.85 0.73Q37.74 0.73 36.59 0.78 35.45 0.83 34.53 0.89L34.53 0.89Q33.45 0.98 32.44 1.05L32.44 1.05Q32.66-1.08 32.83-3.24 33.01-5.4 33.13-7.49 33.26-9.58 33.36-11.52 33.45-13.46 33.52-15.17L33.52-15.17Q33.64-19.17 33.67-22.82L33.67-22.82Q33.64-26.63 33.52-30.63L33.52-30.63Q33.45-32.34 33.36-34.23 33.26-36.12 33.13-38.09 33.01-40.05 32.83-42.04 32.66-44.02 32.44-45.89L32.44-45.89Q36.4-45.73 39.53-45.66 42.66-45.58 45.1-45.58L45.1-45.58Q47.51-45.58 49.26-45.62 51-45.67 52.11-45.73L52.11-45.73Q53.42-45.8 54.27-45.89L54.27-45.89Q54.27-45.93 54.27-45.32 54.27-44.72 54.3-43.74 54.34-42.75 54.42-41.51 54.49-40.28 54.65-39.01ZM65.44-20.41L65.44-26.12Q65.48-26.09 65.57-26.09L65.57-26.09Q65.67-26.06 65.95-26.06L65.95-26.06Q66.43-26.06 67.19-26.15 67.95-26.25 68.82-26.6 69.7-26.95 70.57-27.61 71.44-28.28 72.16-29.41 72.87-30.53 73.32-32.18 73.76-33.83 73.76-36.15L73.76-36.15Q73.76-37.42 73.28-38.48 72.81-39.55 72.06-40.31 71.32-41.07 70.41-41.5 69.51-41.93 68.62-41.93L68.62-41.93Q68.14-41.89 67.67-41.77L67.67-41.77Q67.25-41.64 66.75-41.39 66.24-41.13 65.76-40.69L65.76-40.69Q66.24-40.05 66.51-39.36 66.78-38.66 66.94-38.05L66.94-38.05Q67.09-37.36 67.13-36.66L67.13-36.66Q67.13-35.55 66.68-34.72 66.24-33.9 65.56-33.33 64.87-32.75 64.05-32.47 63.22-32.18 62.46-32.18L62.46-32.18Q61.83-32.18 60.83-32.36 59.83-32.53 58.87-33.17 57.92-33.8 57.22-35.04 56.53-36.28 56.53-38.4L56.53-38.4Q56.53-40.5 57.49-42.2 58.46-43.89 60.1-45.12 61.73-46.34 63.89-46.99 66.05-47.64 68.43-47.64L68.43-47.64Q70.81-47.64 73.13-46.81 75.44-45.99 77.27-44.34 79.09-42.69 80.23-40.23 81.38-37.77 81.38-34.5L81.38-34.5Q81.38-32.25 80.76-30.37 80.14-28.5 79.14-27.03 78.14-25.55 76.89-24.45 75.63-23.36 74.33-22.63L74.33-22.63Q75.63-22.06 76.89-21.14 78.14-20.22 79.14-18.93 80.14-17.65 80.76-15.93 81.38-14.22 81.38-12.03L81.38-12.03Q81.38-8.76 80.23-6.3 79.09-3.84 77.27-2.19 75.44-0.54 73.13 0.29 70.81 1.11 68.43 1.11L68.43 1.11Q66.05 1.11 63.89 0.46 61.73-0.19 60.1-1.41 58.46-2.63 57.49-4.33 56.53-6.03 56.53-8.13L56.53-8.13Q56.53-10.25 57.22-11.49 57.92-12.73 58.87-13.36 59.83-14 60.83-14.19 61.83-14.38 62.46-14.38L62.46-14.38Q63.22-14.38 64.05-14.08 64.87-13.77 65.56-13.2 66.24-12.63 66.68-11.79 67.13-10.95 67.13-9.87L67.13-9.87Q67.09-9.17 66.97-8.47L66.97-8.47Q66.84-7.87 66.56-7.17 66.27-6.47 65.76-5.84L65.76-5.84Q66.24-5.36 66.75-5.13 67.25-4.89 67.67-4.76L67.67-4.76Q68.14-4.63 68.62-4.6L68.62-4.6Q69.51-4.6 70.41-5.03 71.32-5.46 72.06-6.22 72.81-6.98 73.28-8.05 73.76-9.11 73.76-10.41L73.76-10.41Q73.76-12.76 73.28-14.43 72.81-16.09 72.05-17.2 71.28-18.31 70.36-18.95 69.44-19.58 68.55-19.92 67.67-20.25 66.92-20.33 66.17-20.41 65.76-20.41L65.76-20.41 65.44-20.41ZM108.61-7.27L108.61-7.27Q108.58-7.11 108.58-6.92L108.58-6.92Q108.54-6.76 108.54-6.51 108.54-6.25 108.54-5.9L108.54-5.9Q108.54-5.05 108.61-3.54 108.67-2.03 108.93 0.06L108.93 0.06Q106.32 0 104.07 0 101.82 0 99.82 0L99.82 0Q95.85 0 93.06 0.06 90.26 0.13 88.45 0.19L88.45 0.19Q86.36 0.29 85 0.38L85 0.38Q84.96 0.29 84.96 0.13L84.96 0.13Q84.93 0 84.93-0.19 84.93-0.38 84.93-0.63L84.93-0.63Q84.93-1.71 85.19-3.68 85.44-5.65 86.31-8.14 87.19-10.63 88.91-13.43 90.64-16.22 93.6-18.98L93.6-18.98Q95.34-20.63 96.87-22.34 98.39-24.06 99.53-25.96 100.67-27.87 101.32-30.04 101.98-32.21 101.98-34.79L101.98-34.79Q101.98-36.88 101.56-38.26 101.15-39.64 100.44-40.45 99.72-41.26 98.79-41.59 97.85-41.93 96.77-41.93L96.77-41.93Q96.29-41.89 95.82-41.77L95.82-41.77Q95.41-41.64 94.9-41.39 94.39-41.13 93.91-40.69L93.91-40.69Q94.39-40.05 94.66-39.36 94.93-38.66 95.09-38.05L95.09-38.05Q95.25-37.36 95.28-36.66L95.28-36.66Q95.28-35.55 94.83-34.72 94.39-33.9 93.71-33.33 93.02-32.75 92.2-32.47 91.37-32.18 90.58-32.18L90.58-32.18Q89.98-32.18 88.98-32.36 87.98-32.53 87.03-33.17 86.07-33.8 85.38-35.04 84.68-36.28 84.68-38.4L84.68-38.4Q84.68-40.5 85.65-42.2 86.61-43.89 88.25-45.12 89.88-46.34 92.04-46.99 94.2-47.64 96.58-47.64L96.58-47.64Q98.93-47.64 101.25-46.81 103.56-45.99 105.39-44.34 107.21-42.69 108.35-40.23 109.5-37.77 109.5-34.5L109.5-34.5Q109.5-30.53 108.4-27.5 107.31-24.47 105.66-22.07 104.01-19.68 102.05-17.73 100.1-15.77 98.39-13.96L98.39-13.96Q96.1-11.58 94.88-9.38 93.66-7.17 93.12-5.65L93.12-5.65Q96.36-5.74 99.18-6 102.01-6.25 104.1-6.51 106.2-6.76 107.4-6.98 108.61-7.2 108.61-7.27Z" transform="translate(-2.1600000858306885, 47.63999938964844)"></path></g> <!----> <!----> <!----> <!----> <!----> <!----> <!----></g></g> <g data-gra="path-slogan" fill-rule="" class="tp-slogan iconsvg-slogansvg" fill="#0a0619" transform="translate(5,55.06999969482422)"><rect x="0" height="1" y="3.8600001335144043" width="16.374998092651367"></rect> <rect height="1" y="3.8600001335144043" width="16.374998092651367" x="80.96499824523926"></rect> <g transform="translate(19.374998092651367,0)"><g transform="scale(1)"><path d="M2.06-5.06L6.56-5.06L6.56-8.58L7.73-8.58L7.73 0L6.56 0L6.56-3.98L2.06-3.98L2.06 0L0.89 0L0.89-8.58L2.06-8.58L2.06-5.06ZM15.19 0L14.34-2.48L10.88-2.48L9.98 0L8.81 0L12.05-8.58L13.36-8.58L16.45 0L15.19 0ZM12.61-7.31L11.25-3.52L13.92-3.52L12.66-7.31L12.61-7.31ZM18.14-8.58L20.58-1.27L23.06-8.58L24.38-8.58L21.23 0L19.97 0L16.83-8.58L18.14-8.58ZM26.77-1.03L31.92-1.03L31.92 0L25.59 0L25.59-8.58L31.83-8.58L31.83-7.59L26.77-7.59L26.77-4.92L31.45-4.92L31.45-3.89L26.77-3.89L26.77-1.03ZM42.28-3.89L38.06-3.89L38.06 0L36.89 0L36.89-8.58L42.84-8.58L42.84-7.59L38.06-7.59L38.06-4.92L42.28-4.92L42.28-3.89ZM49.69-3.19L49.69-8.58L50.86-8.58L50.86-3.05Q50.72 0.05 47.34 0.14L47.34 0.14Q44.20 0.05 44.06-2.86L44.06-2.86L44.06-8.58L45.23-8.58L45.23-3.19Q45.28-0.84 47.39-0.80L47.39-0.80Q49.69-0.84 49.69-3.19L49.69-3.19ZM54.05-8.58L58.36-1.64L58.36-8.58L59.48-8.58L59.48 0L58.17 0L53.81-6.94L53.77-6.94L53.77 0L52.64 0L52.64-8.58L54.05-8.58Z" transform="translate(-0.890625, 8.578125)"></path></g></g></g></g></g><defs v-gra="od"></defs><defs v-gra="id"><filter id="9307e6cf-f7c6-466c-a815-4ec24a93dea9" filterUnits="userSpaceOnUse"><feColorMatrix type="matrix" values="0 0 0 0 0.99609375  0 0 0 0 0.99609375  0 0 0 0 0.99609375  0 0 0 1 0"></feColorMatrix></filter><linearGradient x1="0" y1="1" x2="0" y2="0" id="o-kMeUyZFMzKreOg3TiIg"><stop offset="0%" stop-color="#2cf1ae"></stop><stop offset="50%" stop-color="#1eaafd"></stop><stop offset="100%" stop-color="#dd3ffc"></stop></linearGradient><filter id="42443b3f1de60f6b6fd3b6a9844b4764" filterUnits="objectBoundingBox"><feColorMatrix type="matrix" values="0 0 0 0 0.99609375  0 0 0 0 0.99609375  0 0 0 0 0.99609375  0 0 0 1 0"></feColorMatrix></filter></defs><mask v-gra="im" id="4714bc5c-82e1-4e9d-a130-63459d484462"><g class="iconsvg-imagesvg" filter="url(#9307e6cf-f7c6-466c-a815-4ec24a93dea9)"><g><rect fill="#0a0619" fill-opacity="0" stroke-width="2" x="0" y="0" width="60" height="58.38222844965993" class="image-rect"></rect> <svg x="0" y="0" width="60" height="58.38222844965993" filtersec="colorsf9903860310" class="image-svg-svg primary" style="overflow: visible;"><svg xmlns="http://www.w3.org/2000/svg" viewBox="-0.014941391535103321 0.015548555180430412 107.87821960449219 104.96990966796875"><title>资源 14</title><path d="M27.74 5.39C29.59 4.2 31.28 3 33.11 2A15.54 15.54 0 0 1 37.46.35c1.45-.29 2.56.9 3.75 1.59C42.92 3 44.62 4 46.32 5s3.27 2 4.93 3c3.43 2 6.9 3.94 10.32 5.95q5.7 3.33 11.34 6.76a1.28 1.28 0 0 1 .52.93v21.92a1.43 1.43 0 0 1-.49 1.07c-2.4 1.47-4.85 2.87-7.28 4.29a3.76 3.76 0 0 1-.67.17v-3.65l-.18-18.81a1.14 1.14 0 0 0-.66-1.18c-3.37-1.86-6.7-3.77-10-5.68-3.15-1.77-6.21-3.53-9.3-5.28A60.55 60.55 0 0 1 39 11.21c-1.76-1.27-3-.17-4.41.44s-2.26 1.5-3.56 2A38 38 0 0 0 27 16q-4.77 2.67-9.56 5.3a5.06 5.06 0 0 1-.94.27V15.8a28.56 28.56 0 0 0 0-3.07 1.45 1.45 0 0 1 .91-1.58C19.9 9.73 22.45 8.32 25 6.82M45.46 44.69c-.62.44-.92.69-1.24.88l-15.36 9c-.83.49-1.64 1-2.5 1.44a1.37 1.37 0 0 0-.85 1.4v30.3a1.41 1.41 0 0 0 .88 1.44c4.72 2.65 9.4 5.35 14.1 8 1.38.79 2.75 1.58 4.13 2.39.37.21.72.45 1.21.76a8.89 8.89 0 0 1-1.08 1c-1.69 1-3.4 2.07-5.11 3.1a4.1 4.1 0 0 1-4.44-.14c-5.87-3.44-11.7-7-17.54-10.43a1.39 1.39 0 0 1-.82-1.33V70.67 52.94a1.81 1.81 0 0 1 .91-1.74c2.82-1.68 5.62-3.37 8.45-5s5.83-3.41 8.73-5.14a4.08 4.08 0 0 1 4.19-.2c2.04 1.14 4.03 2.43 6.34 3.83z" fill="#000000"></path><path d="M8.55 69.62c-1.83-1-3.42-2-5-2.87a22.92 22.92 0 0 0-2.68-1.37A1.24 1.24 0 0 1 0 64V47.47v-5.48a2 2 0 0 1 1.26-2c2.76-1.52 5.5-3.09 8.23-4.66q7-4 14-8.09c3.3-1.91 6.63-3.78 9.87-5.79a5.17 5.17 0 0 1 6 0c5.18 3.17 10.42 6.24 15.67 9.28a2.63 2.63 0 0 1 1.61 2.72c-.12 2.09 0 4.19 0 6.28 0 .45-.07.9-.12 1.55-1.24-.67-2.34-1.24-3.42-1.85q-7.93-4.47-15.84-9a1.61 1.61 0 0 0-1.82 0C29.38 34 23.31 37.48 17.23 41c-2.53 1.45-5.06 2.89-7.61 4.31a1.76 1.76 0 0 0-1 1.75v21.42c0 .26-.04.52-.07 1.14zM62.26 4.76c1.27-.84 2.4-1.64 3.58-2.36S68.33 1 69.56.3a1.63 1.63 0 0 1 1.84 0C76.2 3 81 5.76 85.83 8.51c1.47.84 2.91 1.73 4.36 2.58a2 2 0 0 1 1.18 2c-.09 7.13-.11 14.27-.14 21.41v17.43a2.13 2.13 0 0 1-1 2c-2.45 1.59-4.87 3.22-7.39 4.7-3.48 2.06-7 4-10.58 6a2.79 2.79 0 0 1-2.16.27c-2.52-1.23-4.94-2.65-7.64-4.13.61-.43.93-.69 1.28-.89q9-5.25 18-10.46c.9-.52.82-1.28.82-2.06V36c0-6-.11-11.89 0-17.83a2.27 2.27 0 0 0-1.42-2.29c-6-3.4-12-6.86-18-10.31a6.76 6.76 0 0 1-.88-.81zM43.15 56.21a11.34 11.34 0 0 1 .13 1.2q0 8.72-.05 17.44a22.79 22.79 0 0 1 0 3c-.2 1.37.49 1.9 1.59 2.51 4.42 2.44 8.75 5 13.11 7.56l9.56 5.54a3.87 3.87 0 0 1 .59.36c1.85 1.62 3.57 1.31 5.6.1 5.57-3.34 11.27-6.47 16.92-9.68.22-.13.46-.21.67-.31.1.11.18.15.18.2 0 3 .07 5.91 0 8.86a1.26 1.26 0 0 1-.61.88c-4.19 2.43-8.4 4.83-12.6 7.24-1.79 1-3.55 2.08-5.35 3.08a4.39 4.39 0 0 1-4.71-.12c-5.09-3-10.21-6-15.33-9q-8.67-5.09-17.37-10.14a1.51 1.51 0 0 1-.89-1.49c0-6.68 0-13.35-.1-20a3.36 3.36 0 0 1 2-3.55c1.69-.83 3.25-1.93 4.89-2.87a13.68 13.68 0 0 1 1.77-.81z" fill="#000000"></path><path d="M51.64 63.8c2.07 1.16 3.91 2.14 5.7 3.19 4.36 2.54 8.72 5.09 13 7.69a2.48 2.48 0 0 0 2.85-.08c3.55-2.07 7.13-4.1 10.69-6.16 4.86-2.81 9.69-5.64 14.57-8.41a1.46 1.46 0 0 0 .87-1.47v-15q0-3.44.08-6.87a4.11 4.11 0 0 1 .13-.68 3.49 3.49 0 0 1 .75.23c2.29 1.28 4.58 2.55 6.84 3.89a1.61 1.61 0 0 1 .67 1.17c.07 7.57.08 15.15.07 22.72a1.37 1.37 0 0 1-.61 1q-10.09 5.83-20.31 11.64c-4.57 2.63-9.16 5.24-13.71 7.9a2.75 2.75 0 0 1-3.2-.12c-3.53-2.17-7.15-4.19-10.74-6.27l-6.95-4.08a1.62 1.62 0 0 1-.85-1.63c.07-2.39 0-4.78 0-7.17.02-.39.08-.77.15-1.49z" fill="#000000"></path></svg></svg> <defs><filter id="colors9935555793"><feColorMatrix type="matrix" values="0 0 0 0 0.0390625  0 0 0 0 0.0234375  0 0 0 0 0.09765625  0 0 0 1 0" class="icon-fecolormatrix"></feColorMatrix></filter> <filter id="colorsf9903860310"><feColorMatrix type="matrix" values="0 0 0 0 0.99609375  0 0 0 0 0.99609375  0 0 0 0 0.99609375  0 0 0 1 0" class="icon-fecolormatrix"></feColorMatrix></filter> <filter id="colorsb4639363834"><feColorMatrix type="matrix" values="0 0 0 0 0  0 0 0 0 0  0 0 0 0 0  0 0 0 1 0" class="icon-fecolormatrix"></feColorMatrix></filter></defs></g></g></mask></svg>